<?xml version="1.0" encoding="utf-8"?>
<svg version="1.1" xmlns:xlink="http://www.w3.org/1999/xlink" width="40px" height="40px" xmlns="http://www.w3.org/2000/svg">
  <defs>
    <filter x="55px" y="62px" width="40px" height="40px" filterUnits="userSpaceOnUse" id="filter1">
      <feOffset dx="1" dy="1" in="SourceAlpha" result="shadowOffsetInner" />
      <feGaussianBlur stdDeviation="2.5" in="shadowOffsetInner" result="shadowGaussian" />
      <feComposite in2="shadowGaussian" operator="atop" in="SourceAlpha" result="shadowComposite" />
      <feColorMatrix type="matrix" values="0 0 0 0 0  0 0 0 0 0  0 0 0 0 0  0 0 0 0.698039215686274 0  " in="shadowComposite" />
    </filter>
    <g id="widget2">
      <path d="M 74 66  C 82.4 66  89 72.6  89 81  C 89 89.4  82.4 96  74 96  C 65.6 96  59 89.4  59 81  C 59 72.6  65.6 66  74 66  Z " fill-rule="nonzero" fill="#f59a23" stroke="none" />
      <path d="M 74 66.5  C 82.12 66.5  88.5 72.88  88.5 81  C 88.5 89.12  82.12 95.5  74 95.5  C 65.88 95.5  59.5 89.12  59.5 81  C 59.5 72.88  65.88 66.5  74 66.5  Z " stroke-width="1" stroke="#ffffff" fill="none" />
    </g>
  </defs>
  <g transform="matrix(1 0 0 1 -55 -62 )">
    <use xlink:href="#widget2" filter="url(#filter1)" />
    <use xlink:href="#widget2" />
  </g>
</svg>