<?xml version="1.0" encoding="utf-8"?>
<svg version="1.1" xmlns:xlink="http://www.w3.org/1999/xlink" width="40px" height="40px" xmlns="http://www.w3.org/2000/svg">
  <defs>
    <filter x="331px" y="62px" width="40px" height="40px" filterUnits="userSpaceOnUse" id="filter5">
      <feOffset dx="1" dy="1" in="SourceAlpha" result="shadowOffsetInner" />
      <feGaussianBlur stdDeviation="2.5" in="shadowOffsetInner" result="shadowGaussian" />
      <feComposite in2="shadowGaussian" operator="atop" in="SourceAlpha" result="shadowComposite" />
      <feColorMatrix type="matrix" values="0 0 0 0 0  0 0 0 0 0  0 0 0 0 0  0 0 0 0.698039215686274 0  " in="shadowComposite" />
    </filter>
    <g id="widget6">
      <path d="M 350 66  C 358.4 66  365 72.6  365 81  C 365 89.4  358.4 96  350 96  C 341.6 96  335 89.4  335 81  C 335 72.6  341.6 66  350 66  Z " fill-rule="nonzero" fill="#95f204" stroke="none" />
      <path d="M 350 66.5  C 358.12 66.5  364.5 72.88  364.5 81  C 364.5 89.12  358.12 95.5  350 95.5  C 341.88 95.5  335.5 89.12  335.5 81  C 335.5 72.88  341.88 66.5  350 66.5  Z " stroke-width="1" stroke="#ffffff" fill="none" />
    </g>
  </defs>
  <g transform="matrix(1 0 0 1 -331 -62 )">
    <use xlink:href="#widget6" filter="url(#filter5)" />
    <use xlink:href="#widget6" />
  </g>
</svg>